<?xml version="1.0" encoding="UTF-8" standalone="no"?>
<!-- Generator: Adobe Illustrator 16.0.0, SVG Export Plug-In . SVG Version: 6.00 Build 0)  -->

<svg
   xmlns:dc="http://purl.org/dc/elements/1.1/"
   xmlns:cc="http://creativecommons.org/ns#"
   xmlns:rdf="http://www.w3.org/1999/02/22-rdf-syntax-ns#"
   xmlns:svg="http://www.w3.org/2000/svg"
   xmlns="http://www.w3.org/2000/svg"
   xmlns:sodipodi="http://sodipodi.sourceforge.net/DTD/sodipodi-0.dtd"
   xmlns:inkscape="http://www.inkscape.org/namespaces/inkscape"
   version="1.1"
   id="圖層_1"
   x="0px"
   y="0px"
   width="50px"
   height="50px"
   viewBox="0 0 50 50"
   xml:space="preserve"
   inkscape:version="0.48.4 r9939"
   sodipodi:docname="紀律.svg"><metadata
     id="metadata13"><rdf:RDF><cc:Work
         rdf:about=""><dc:format>image/svg+xml</dc:format><dc:type
           rdf:resource="http://purl.org/dc/dcmitype/StillImage" /><dc:title></dc:title></cc:Work></rdf:RDF></metadata><defs
     id="defs11" /><sodipodi:namedview
     pagecolor="#ffffff"
     bordercolor="#666666"
     borderopacity="1"
     objecttolerance="10"
     gridtolerance="10"
     guidetolerance="10"
     inkscape:pageopacity="0"
     inkscape:pageshadow="2"
     inkscape:window-width="1364"
     inkscape:window-height="724"
     id="namedview9"
     showgrid="false"
     inkscape:zoom="9.44"
     inkscape:cx="20.344998"
     inkscape:cy="20.322635"
     inkscape:window-x="0"
     inkscape:window-y="42"
     inkscape:window-maximized="0"
     inkscape:current-layer="圖層_1" /><g
     id="g3"><path
       d="M47.913,31.762l-3.209-2.829l-2.328,2.642c-0.314,0.355-0.855,0.389-1.211,0.076c-0.355-0.313-0.389-0.854-0.076-1.21   l2.328-2.642l-3.193-2.814l-4.707,5.34c-0.313,0.356-0.854,0.39-1.209,0.076c-0.355-0.313-0.391-0.854-0.076-1.21l4.707-5.34   l-3.193-2.814l-2.328,2.642c-0.314,0.355-0.854,0.39-1.209,0.076c-0.355-0.313-0.39-0.854-0.076-1.21l2.328-2.642l-3.193-2.814   l-2.328,2.641c-0.313,0.355-0.854,0.389-1.21,0.076c-0.354-0.313-0.39-0.854-0.076-1.21l2.328-2.641l-3.193-2.815l-2.329,2.641   c-0.313,0.355-0.854,0.389-1.21,0.076c-0.355-0.313-0.389-0.854-0.076-1.21l2.328-2.641l-3.192-2.814l-2.328,2.642   c-0.313,0.355-0.854,0.389-1.21,0.076c-0.355-0.313-0.389-0.855-0.076-1.21l2.328-2.642l-3.193-2.814l-4.707,5.34   c-0.313,0.355-0.854,0.389-1.209,0.076c-0.356-0.313-0.39-0.854-0.076-1.209l4.707-5.341l-2.652-2.337   c-1.165-1.027-1.738-0.991-2.766,0.174L4.562,9.394c-1.026,1.165-0.991,1.738,0.175,2.765l34.022,29.988   c1.164,1.027,1.738,0.992,2.766-0.174l6.563-7.446C49.114,33.363,49.077,32.789,47.913,31.762z"
       id="path7" /></g></svg>