<?xml version="1.0" encoding="UTF-8" standalone="no"?>
<!-- Generator: Adobe Illustrator 16.0.0, SVG Export Plug-In . SVG Version: 6.00 Build 0)  -->

<svg
   xmlns:dc="http://purl.org/dc/elements/1.1/"
   xmlns:cc="http://creativecommons.org/ns#"
   xmlns:rdf="http://www.w3.org/1999/02/22-rdf-syntax-ns#"
   xmlns:svg="http://www.w3.org/2000/svg"
   xmlns="http://www.w3.org/2000/svg"
   xmlns:sodipodi="http://sodipodi.sourceforge.net/DTD/sodipodi-0.dtd"
   xmlns:inkscape="http://www.inkscape.org/namespaces/inkscape"
   version="1.1"
   id="圖層_1"
   x="0px"
   y="0px"
   width="50px"
   height="50px"
   viewBox="0 0 50 50"
   xml:space="preserve"
   inkscape:version="0.48.4 r9939"
   sodipodi:docname="程序.svg"
   inkscape:export-filename="/home/walkingice/code/g0v/ly.g0v.tw/icons/process.png"
   inkscape:export-xdpi="90"
   inkscape:export-ydpi="90"><metadata
     id="metadata17"><rdf:RDF><cc:Work
         rdf:about=""><dc:format>image/svg+xml</dc:format><dc:type
           rdf:resource="http://purl.org/dc/dcmitype/StillImage" /><dc:title></dc:title></cc:Work></rdf:RDF></metadata><defs
     id="defs15" /><sodipodi:namedview
     pagecolor="#ffffff"
     bordercolor="#666666"
     borderopacity="1"
     objecttolerance="10"
     gridtolerance="10"
     guidetolerance="10"
     inkscape:pageopacity="0"
     inkscape:pageshadow="2"
     inkscape:window-width="973"
     inkscape:window-height="650"
     id="namedview13"
     showgrid="false"
     inkscape:zoom="4.72"
     inkscape:cx="34.93214"
     inkscape:cy="10.769549"
     inkscape:window-x="240"
     inkscape:window-y="89"
     inkscape:window-maximized="0"
     inkscape:current-layer="圖層_1" /><path
     d="m 24.9375,6.0603814 c -1.148,0 -2.0625,0.639 -2.0625,1.875 l 0,2.4062496 -18.46875,0 -0.0625,0 c -0.532,0.015 -0.96875,0.44775 -0.96875,0.96875 0,0.105 0.0295,0.2155 0.0625,0.3125 l 0.28125,0.40625 4.375,6.40625 -4.4375,6.46875 -0.25,0.375 c -0.038,0.104 -0.09375,0.1975 -0.09375,0.3125 0,0.462 0.3655,0.8465 0.8125,0.9375 l 0.375,0 18.375,0 0,18.40625 c 1.520951,-0.0017 2.605929,-0.0017 4.125,0 l 0.03125,-18.40625 13.0625,0 c 0,0 0.291,0.0325 0.5,-0.0625 0.203,-0.095 0.3125,-0.25 0.3125,-0.25 l 6.65625,-7.0625 0.25,-0.3125 c 0.07,-0.131 0.125,-0.24725 0.125,-0.40625 0,-0.174 -0.07425,-0.32975 -0.15625,-0.46875 l -0.1875,-0.25 -6.5,-6.84375 c 0,0 -0.287,-0.3525 -0.5,-0.4375 -0.213,-0.085 -0.75,-0.09375 -0.75,-0.09375 l -12.8125,0 0,-2.4062496 c 0,-1.236 -0.94375,-1.875 -2.09375,-1.875 z"
     id="path5"
     inkscape:connector-curvature="0"
     sodipodi:nodetypes="sscccscccccscccccccccccscccsccss" /></svg>