<?xml version="1.0" encoding="iso-8859-1"?>
<!-- Generator: Adobe Illustrator 16.0.0, SVG Export Plug-In . SVG Version: 6.00 Build 0)  -->
<!DOCTYPE svg PUBLIC "-//W3C//DTD SVG 1.1 Tiny//EN" "http://www.w3.org/Graphics/SVG/1.1/DTD/svg11-tiny.dtd">
<svg version="1.1" baseProfile="tiny" id="&#x5716;&#x5C64;_1"
	 xmlns="http://www.w3.org/2000/svg" xmlns:xlink="http://www.w3.org/1999/xlink" x="0px" y="0px" width="50px" height="50px"
	 viewBox="0 0 50 50" xml:space="preserve">
<path d="M48.645,44.854l-2.005-3.17c1.165-0.75,1.935-1.976,1.935-3.369V10.673C48.574,6.875,45.461,1,37.847,1H12.156
	C4.447,1,1.427,6.875,1.427,10.673v27.642c0,1.437,0.809,2.698,2.036,3.442l-1.962,3.097C-0.404,47.963,3.56,49,6.098,49h37.95
	C46.586,49,50.142,47.359,48.645,44.854z M35.73,32.206c0-1.97,1.774-3.57,3.958-3.57c0.003,0,0.003,0,0.003,0
	c2.187,0,3.958,1.601,3.958,3.57c0,1.972-1.771,3.569-3.958,3.569c0,0,0,0-0.003,0C37.505,35.775,35.73,34.178,35.73,32.206z
	 M43.649,13.462v9.675c0,2.291-0.525,2.766-3.063,2.766H30.039c-2.538,0-3.067-0.475-3.067-2.766v-9.675
	c0-2.288,0.529-2.766,3.067-2.766h10.547C43.124,10.697,43.649,11.175,43.649,13.462z M17.806,4.569h14.39
	c1.641,0,1.981,0.306,1.981,1.788c0,1.475-0.341,1.784-1.981,1.784h-14.39c-1.641,0-1.98-0.31-1.98-1.784
	C15.825,4.875,16.165,4.569,17.806,4.569z M6.353,13.462c0-2.288,0.525-2.766,3.063-2.766h10.548c2.538,0,3.063,0.478,3.063,2.766
	v9.675c0,2.291-0.526,2.766-3.063,2.766H9.416c-2.538,0-3.063-0.475-3.063-2.766V13.462z M10.31,28.636L10.31,28.636
	c2.189,0,3.96,1.601,3.96,3.57c0,1.972-1.771,3.569-3.96,3.569l0,0c-2.187,0-3.959-1.598-3.959-3.569
	C6.351,30.236,8.124,28.636,10.31,28.636z M41.048,45.886H8.852c-3.272,0-3.438-0.904-1.942-3.422H43.07
	C43.914,44.169,44.442,45.886,41.048,45.886z"/>
</svg>
