<?xml version="1.0" encoding="iso-8859-1"?>
<!-- Generator: Adobe Illustrator 16.0.0, SVG Export Plug-In . SVG Version: 6.00 Build 0)  -->
<!DOCTYPE svg PUBLIC "-//W3C//DTD SVG 1.1 Tiny//EN" "http://www.w3.org/Graphics/SVG/1.1/DTD/svg11-tiny.dtd">
<svg version="1.1" baseProfile="tiny" id="&#x5716;&#x5C64;_1"
	 xmlns="http://www.w3.org/2000/svg" xmlns:xlink="http://www.w3.org/1999/xlink" x="0px" y="0px" width="50px" height="50px"
	 viewBox="0 0 50 50" xml:space="preserve">
<g>
	<path d="M46.309,46.981c-0.646-0.22-4.998-1.889-4.998-6.692V24.736l-2.002,1.538v14.015c0,3.055,1.428,5.243,3.07,6.672H19.175
		c-0.516-0.074-4.84-0.87-4.84-6.9V10.11c0-0.003,0.003-0.012,0.003-0.015c0-0.003-0.003-0.009-0.003-0.012V9.939
		c0-3.479-1.199-5.603-2.582-6.903l22.7-0.003c0.197,0.016,4.855,0.437,4.855,6.906l-0.055,4.23l2.002-1.535l0.055-2.695
		c0-8.304-6.641-8.893-6.781-8.902H7.554c-0.171,0-0.326,0.052-0.467,0.131c-4.578,1.05-5.426,8.48-5.463,8.822
		c-0.027,0.278,0.059,0.564,0.25,0.775c0.189,0.21,0.461,0.33,0.748,0.33h9.711V40.06c0,8.123,6.613,8.89,6.68,8.896
		c0.031,0,0.067,0.007,0.102,0.007H46.09c0.006,0,0.008,0,0.018,0c0.553,0,0.998-0.449,0.998-1.002
		C47.105,47.478,46.764,47.073,46.309,46.981z M3.804,9.094c0.391-1.898,1.468-5.612,3.942-6.018
		c0.992,0.195,4.205,1.211,4.55,6.018H3.804z"/>
	<path d="M48.266,16.163l-2.883-3.753c-0.086-0.116-0.217-0.189-0.363-0.211c-0.152-0.021-0.297,0.021-0.41,0.107l-2.764,2.127
		c-0.244,0.186-0.291,0.534-0.102,0.778l2.881,3.75c0.086,0.116,0.221,0.195,0.363,0.214c0.025,0,0.049,0.003,0.074,0.003
		c0.117,0,0.236-0.04,0.334-0.116l2.77-2.124C48.406,16.749,48.451,16.404,48.266,16.163z"/>
	<path d="M43.551,20.28c0.018-0.146-0.016-0.293-0.109-0.415l-2.885-3.748c-0.182-0.244-0.531-0.29-0.771-0.104l-12.658,9.723
		c-0.055,0.04-0.098,0.092-0.131,0.146l-3.76,5.985c-0.123,0.195-0.11,0.451,0.036,0.632c0.106,0.141,0.266,0.213,0.434,0.213
		c0.058,0,0.119-0.009,0.177-0.03l6.638-2.225c0.058-0.024,0.109-0.052,0.161-0.089l12.658-9.723
		C43.459,20.558,43.535,20.426,43.551,20.28z M28.866,28.01l-3.668,2.811l2.677-4.267l12.143-9.326l1.076,1.398L28.866,28.01z"/>
	<path d="M18.208,8.874H34.48c0.553,0,1-0.449,1-1.001c0-0.549-0.447-0.995-1-0.995H18.208c-0.553,0-1.001,0.445-1.001,0.995
		C17.208,8.425,17.656,8.874,18.208,8.874z"/>
	<path d="M18.208,14.691H29.51c0.552,0,1.001-0.449,1.001-1.001c0-0.553-0.449-1.001-1.001-1.001H18.208
		c-0.553,0-1.001,0.448-1.001,1.001C17.208,14.242,17.656,14.691,18.208,14.691z"/>
	<path d="M33.924,36.862c0-0.553-0.447-1.001-1-1.001H18.458c-0.553,0-1.001,0.448-1.001,1.001c0,0.552,0.448,0.997,1.001,0.997
		h14.465C33.477,37.859,33.924,37.414,33.924,36.862z"/>
	<path d="M18.458,41.228c-0.553,0-1.001,0.449-1.001,1.002c0,0.549,0.448,0.994,1.001,0.994h9.04c0.553,0,1.001-0.445,1.001-0.994
		c0-0.553-0.448-1.002-1.001-1.002H18.458z"/>
</g>
</svg>
