<?xml version="1.0" encoding="iso-8859-1"?>
<!-- Generator: Adobe Illustrator 16.0.0, SVG Export Plug-In . SVG Version: 6.00 Build 0)  -->
<!DOCTYPE svg PUBLIC "-//W3C//DTD SVG 1.1 Tiny//EN" "http://www.w3.org/Graphics/SVG/1.1/DTD/svg11-tiny.dtd">
<svg version="1.1" baseProfile="tiny" id="&#x5716;&#x5C64;_1"
	 xmlns="http://www.w3.org/2000/svg" xmlns:xlink="http://www.w3.org/1999/xlink" x="0px" y="0px" width="50px" height="50px"
	 viewBox="0 0 50 50" xml:space="preserve">
<path d="M31.834,7.899c-0.449-0.299-2.909-1.937-4.326-3.372C25.943,2.939,25,1,25,1s-0.885,1.91-2.487,3.507
	c-1.453,1.444-3.902,3.094-4.351,3.393C8.239,10.858,1,18.074,1,29.009C1,39.396,7.544,46.419,16.716,49
	c-5.559-3.021-9.344-8.99-9.344-15.862c0-7.259,4.227-13.496,10.297-16.334c-3.861,2.615-6.433,7.221-6.433,12.479
	c0,5.914,3.245,10.998,7.922,13.357c-1.865-1.7-3.047-4.19-3.047-6.979c0-5.121,3.978-9.272,8.888-9.272
	c4.909,0,8.888,4.151,8.888,9.272c0,2.788-1.182,5.282-3.049,6.979c4.68-2.359,7.924-7.443,7.924-13.357
	c0-5.259-2.569-9.864-6.43-12.479c6.07,2.841,10.298,9.075,10.298,16.334c0,6.872-3.784,12.841-9.344,15.862
	C42.456,46.416,49,39.396,49,29.009C49,18.074,41.756,10.858,31.834,7.899z"/>
</svg>
