<?xml version="1.0" encoding="iso-8859-1"?>
<!-- Generator: Adobe Illustrator 16.0.0, SVG Export Plug-In . SVG Version: 6.00 Build 0)  -->
<!DOCTYPE svg PUBLIC "-//W3C//DTD SVG 1.1 Tiny//EN" "http://www.w3.org/Graphics/SVG/1.1/DTD/svg11-tiny.dtd">
<svg version="1.1" baseProfile="tiny" id="&#x5716;&#x5C64;_1"
	 xmlns="http://www.w3.org/2000/svg" xmlns:xlink="http://www.w3.org/1999/xlink" x="0px" y="0px" width="50px" height="50px"
	 viewBox="0 0 50 50" xml:space="preserve">
<path d="M40.283,8.23C40.1,7.749,39.7,7.567,38.771,7.567H27.65C27.65,6.149,26.561,5,25.216,5s-2.434,1.149-2.434,2.567H11.691
	c-1.042,0-1.314,0.232-1.507,0.71c0,0-9.185,21.002-9.185,21.378c0,5.166,4.511,9.357,10.075,9.357
	c5.564,0,10.075-4.191,10.075-9.357c0-0.271-5.254-12.991-7.604-18.666h9.237v28.877h-3.144c-1.344,0-2.433,1.149-2.433,2.566
	c0,1.418,1.089,2.567,2.433,2.567h11.155c1.344,0,2.433-1.149,2.433-2.567c0-1.417-1.089-2.566-2.433-2.566H27.65V10.989h9.168
	c-2.493,5.72-7.969,18.304-7.969,18.595c0,5.165,4.513,9.355,10.075,9.355c5.565,0,10.075-4.19,10.075-9.355
	C49,29.232,40.283,8.23,40.283,8.23z M4.881,27.928l6.388-15.792l6.037,15.855C13.74,27.438,8.459,27.399,4.881,27.928z
	 M32.731,27.856l6.388-15.792l6.037,15.856C41.591,27.366,36.31,27.328,32.731,27.856z"/>
</svg>
