<?xml version="1.0" encoding="iso-8859-1"?>
<!-- Generator: Adobe Illustrator 16.0.0, SVG Export Plug-In . SVG Version: 6.00 Build 0)  -->
<!DOCTYPE svg PUBLIC "-//W3C//DTD SVG 1.1 Tiny//EN" "http://www.w3.org/Graphics/SVG/1.1/DTD/svg11-tiny.dtd">
<svg version="1.1" baseProfile="tiny" id="&#x5716;&#x5C64;_1"
	 xmlns="http://www.w3.org/2000/svg" xmlns:xlink="http://www.w3.org/1999/xlink" x="0px" y="0px" width="50px" height="50px"
	 viewBox="0 0 50 50" xml:space="preserve">
<g>
	<path d="M35.553,13.771c-0.138-0.292-0.449-0.447-0.756-0.374c-0.008,0.001-1.604,0.427-3.97-0.54
		c-2.335-0.956-5.783-1.917-7.566-1.054c-0.248,0.119-0.521,0.244-0.79,0.368c-0.513,0.018-1.067,0.053-1.722,0.095
		c-3.114,0.211-5.352,0.29-5.361,0.29c-0.746,0.028-1.331,0.682-1.305,1.46c0.025,0.78,0.648,1.417,1.396,1.365
		c0,0,0.87-0.031,2.276-0.104c-0.639,1.087-0.882,2.475-0.8,3.576c0.077,1.072-1.094,3.696-1.014,3.876
		c0.088,0.204,0.714,1.033,2.1,1.033c0.616,0,1.364-0.135,2.273-0.416c0.095-0.039,2.341-0.955,2.714-4.199
		c0.118-1.034,0.562-1.175,1.025-1.175c0.531,0,1.208,0.33,2.139,0.7c1.726,0.684,6.764,5.73,8.964,7.772
		c0.694,0.645,0.857,1.389,0.327,2.193c-1.471,2.23-4.909,7.111-5.305,6.944c-0.297-0.002-0.76-0.353-0.97-0.596
		c-0.259-0.306-0.625-0.478-1.014-0.478c-0.391,0-0.759,0.175-1.016,0.48c-0.379,0.453-1.348,0.532-1.967,0.607
		c-1.874-1.635-6.826-5.994-8.592-7.77c-0.9-0.903-1.692-1.324-2.494-1.324c-0.469,0-0.487-0.018-0.896,0.229
		c-1.15-1.104-1.948-1.885-1.97-1.903c-0.545-0.535-1.4-0.507-1.91,0.063c-0.509,0.572-0.481,1.468,0.063,1.998
		c0.084,0.081,0.775,0.76,1.78,1.722c-0.019,0.024-0.039,0.045-0.06,0.067c-0.266,0.295-0.954,0.762-1.258,1.08
		c-0.487,0.509-0.597,1.185-0.313,1.902c1.279,3.229,12.996,7.734,14.099,8.12c2.708,0.944,3.122-1.473,3.139-1.666
		c0.345-0.141,1.113-0.138,1.42-0.353c0.502,0.329,1.158,0.629,1.898,0.644c0.592,0.06,1.524-0.165,2.369-1.083
		c1.027-1.12,8.396-11.477,8.396-11.477c0.153-0.217,0.177-0.501,0.064-0.739L35.553,13.771z"/>
	<g>
		<path d="M48.94,21.909l-5.541-11.533c-0.176-0.367-0.689-0.486-1.146-0.263l-3.728,1.829c-0.456,0.223-0.684,0.706-0.505,1.072
			l5.54,11.533c0.176,0.368,0.688,0.491,1.147,0.266l3.722-1.828C48.89,22.762,49.117,22.279,48.94,21.909z"/>
		<path d="M11.471,11.942l-3.724-1.829C7.289,9.89,6.776,10.007,6.6,10.375L1.06,21.908c-0.176,0.37,0.049,0.852,0.508,1.074
			l3.724,1.829c0.458,0.226,0.973,0.103,1.149-0.265l5.539-11.533C12.156,12.647,11.93,12.165,11.471,11.942z"/>
	</g>
</g>
</svg>
