<?xml version="1.0" encoding="iso-8859-1"?>
<!-- Generator: Adobe Illustrator 16.0.0, SVG Export Plug-In . SVG Version: 6.00 Build 0)  -->
<!DOCTYPE svg PUBLIC "-//W3C//DTD SVG 1.1 Tiny//EN" "http://www.w3.org/Graphics/SVG/1.1/DTD/svg11-tiny.dtd">
<svg version="1.1" baseProfile="tiny" id="&#x5716;&#x5C64;_1"
	 xmlns="http://www.w3.org/2000/svg" xmlns:xlink="http://www.w3.org/1999/xlink" x="0px" y="0px" width="50px" height="50px"
	 viewBox="0 0 50 50" xml:space="preserve">
<path d="M43.844,25.611l-1.699-3.274l1.73-2.564l0.099-0.167C43.987,19.558,44,19.508,44,19.458c0-0.209-0.133-0.376-0.305-0.418
	h-0.156l-2.707-0.551c0.002-7.421,0.005-13.822,0.005-14.279c0-1.279,0.051-2.255-0.494-2.733c-0.742-0.646-1.436-0.447-2.919-0.447
	c-1.484,0-19.889,0.689-27.057,0.984C9.651,2.049,8.906,2.302,8.239,2.642C6.892,3.335,6,4.538,6,6.476
	c-0.004,11.985,0.008,25.475,0.006,37.46c0,0.25,0.023,1.076,0.023,1.229c0,0.898,0.574,1.54,1.399,1.631
	c0.082,0.004,15.762,1.209,21.341,1.751c1.513,0.146,6.148,0.454,6.173,0.454c0.75-0.039,1.338-0.652,1.403-1.438
	c0.005-0.047,0-3.705,0-3.705l3.084-0.058c0.772-0.061,1.386-0.723,1.393-1.555c0-0.004,0.003-6.407,0.006-13.959l-2.47-0.273
	c-0.014,4.205-0.023,8.261-0.026,11.365c-0.001,0.603-0.008,0.854-0.457,1.304c-0.371,0.375-1.527,0.396-1.527,0.396l0.006-15.767
	l7.229,1.057h0.021c0.206-0.008,0.372-0.198,0.372-0.434c0-0.049-0.013-0.092-0.023-0.137L43.844,25.611z M28.036,29.136
	c0,0.423-0.366,0.769-0.819,0.769l-12.013-0.967c-0.453,0-0.818-0.344-0.818-0.767v-2.917c0-0.422,0.365-0.765,0.818-0.765
	l12.013,0.967c0.453,0,0.819,0.342,0.819,0.767V29.136z M31.383,20.852c0,0.422-0.366,0.766-0.819,0.766L12.869,20.2
	c-0.452,0-0.818-0.344-0.818-0.768v-2.914c0-0.424,0.366-0.766,0.818-0.766l17.695,1.417c0.452,0,0.816,0.342,0.816,0.765v2.917
	H31.383z M35.067,9.631C34.984,9.625,14.894,7.93,10.416,7.519C8.799,7.371,8.453,6.822,8.453,6.186
	c0-0.633,0.443-1.072,1.991-1.153C15.257,4.78,36.72,4.221,36.956,4.221c0.828,0,1.499,0.711,1.499,1.584
	c0,0.1-0.025,5.576-0.057,12.408l-2.042-0.229l0.004-6.707v-0.201C36.315,10.321,35.773,9.729,35.067,9.631z"/>
</svg>
