<?xml version="1.0" encoding="iso-8859-1"?>
<!-- Generator: Adobe Illustrator 16.0.0, SVG Export Plug-In . SVG Version: 6.00 Build 0)  -->
<!DOCTYPE svg PUBLIC "-//W3C//DTD SVG 1.1 Tiny//EN" "http://www.w3.org/Graphics/SVG/1.1/DTD/svg11-tiny.dtd">
<svg version="1.1" baseProfile="tiny" id="&#x5716;&#x5C64;_1"
	 xmlns="http://www.w3.org/2000/svg" xmlns:xlink="http://www.w3.org/1999/xlink" x="0px" y="0px" width="50px" height="50px"
	 viewBox="0 0 50 50" xml:space="preserve">
<g>
	<path d="M38.236,25.586c-2.084,0-6.82-0.667-10.168,0.633c-4.188,1.631-7.648,1.557-9.12,1.557c-1.472,0-4.297,0.66-4.383,3.129
		c-0.066,1.881,2.552,3.548,4.123,3.548c0,0,10.565,0.519,11.744,2.522c0,0-9.126,0.523-12.268,0.398
		c-2.158-0.375-4.771,1-8.542-6.1c-3.925-7.384-4.155-7.768-4.155-7.768s-1.766-2.192-3.336-0.814
		c-1.423,1.25-1.176,3.003-0.981,4.195c0,0,3.546,18.604,10.696,20.367c7.358,1.814,11.675,2.23,14.915,1.169
		c1.979-0.651,8.922-3.001,11.303-3.724c1.078-0.328,1.078-1.031,1.078-1.031l-0.084-17.146
		C39.059,26.523,39.145,25.586,38.236,25.586z"/>
	<path d="M33.95,6.944C33.95,3.659,31.343,1,28.131,1c-2.933,0-5.352,2.214-5.753,5.095C21.973,3.214,19.554,1,16.624,1
		c-3.214,0-5.82,2.659-5.82,5.944c0,7.331,11.573,14.272,11.573,14.272S33.95,14.275,33.95,6.944z"/>
	<path d="M49,44.307c0,0.813-0.563,1.473-1.256,1.473H42.93c-0.695,0-1.256-0.66-1.256-1.473V26.525
		c0-0.813,0.561-1.472,1.256-1.472h4.814c0.692,0,1.256,0.659,1.256,1.472V44.307z"/>
</g>
</svg>
