<?xml version="1.0" encoding="utf-8"?>
<!-- Generator: Adobe Illustrator 16.0.0, SVG Export Plug-In . SVG Version: 6.00 Build 0)  -->
<!DOCTYPE svg PUBLIC "-//W3C//DTD SVG 1.1//EN" "http://www.w3.org/Graphics/SVG/1.1/DTD/svg11.dtd">
<svg version="1.1" id="圖層_1" xmlns="http://www.w3.org/2000/svg" xmlns:xlink="http://www.w3.org/1999/xlink" x="0px" y="0px"
	 width="50px" height="50px" viewBox="0 0 50 50" enable-background="new 0 0 50 50" xml:space="preserve">
<path d="M47.457,18.896l-0.203-0.291l-6.563-8.064c0,0-0.303-0.445-0.518-0.545c-0.219-0.101-0.76-0.08-0.76-0.08H27.786
	c0.001-3.943,0.001-6.565,0.001-6.567C27.787,1.796,26.092,1,24,1s-3.786,0.796-3.786,2.349c0,0.002,0,2.624,0,6.567H3.49H3.437
	c-0.54,0.018-0.976,0.514-0.976,1.129c0,0.124,0.029,0.24,0.063,0.354l0.287,0.49l4.418,7.556l-4.504,7.66l-0.259,0.438
	c-0.038,0.123-0.067,0.251-0.067,0.388c0,0.546,0.345,0.979,0.798,1.087h0.406h16.613c0,9.168,0.001,17.273,0.001,17.273
	C20.293,47.793,21.955,49,24,49s3.701-1.207,3.783-2.709c0,0,0.001-8.105,0.002-17.273H39.65c0,0,0.297,0.037,0.508-0.076
	c0.207-0.112,0.326-0.293,0.326-0.293l6.764-8.354l0.232-0.336c0.068-0.153,0.121-0.323,0.121-0.51
	C47.602,19.243,47.537,19.062,47.457,18.896z"/>
</svg>
