<?xml version="1.0" encoding="iso-8859-1"?>
<!-- Generator: Adobe Illustrator 16.0.0, SVG Export Plug-In . SVG Version: 6.00 Build 0)  -->
<!DOCTYPE svg PUBLIC "-//W3C//DTD SVG 1.1 Tiny//EN" "http://www.w3.org/Graphics/SVG/1.1/DTD/svg11-tiny.dtd">
<svg version="1.1" baseProfile="tiny" id="&#x5716;&#x5C64;_1"
	 xmlns="http://www.w3.org/2000/svg" xmlns:xlink="http://www.w3.org/1999/xlink" x="0px" y="0px" width="50px" height="50px"
	 viewBox="0 0 50 50" xml:space="preserve">
<g>
	<path d="M47.713,31.618c-0.953-0.036-1.902-0.104-2.855-0.118c-1.717-0.017-2.672-0.277-2.973-0.441
		c-0.344-0.188-0.719-0.625-0.316-0.765c0.793-0.341,1.672-0.663,2.541-0.987c0.584-0.218,0.674-0.432-0.006-0.634
		c-1.578-0.478-3.16-0.955-4.762-1.427c-0.521-0.157-1.105-0.157-1.705-0.021c-0.789,0.182-1.676,0.334-2.365,0.537
		c-1.26,0.384-2.578,0.471-4.084,0.166c-0.33-0.066-0.641-0.146-0.822-0.392c-0.34-0.458-0.502-0.844-0.732-1.321
		c-0.102-0.229-0.523-0.334-1.256-0.338c-0.454-0.001-0.908-0.001-1.362-0.001c0-1.369,0.001-2.789,0.001-4.229h13.063
		c0,0,0.291,0.031,0.5-0.064c0.203-0.095,0.32-0.247,0.32-0.247l6.674-7.069l0.229-0.284c0.07-0.131,0.119-0.274,0.119-0.433
		c0-0.174-0.061-0.328-0.143-0.467l-0.199-0.246l-6.475-6.825c0,0-0.299-0.376-0.512-0.461s-0.748-0.067-0.748-0.067H27.018
		c0-1.515,0-2.429,0-2.431c0-1.236-0.93-1.87-2.08-1.87c-1.148,0-2.078,0.634-2.078,1.87c0,0.002,0,0.916,0,2.431H4.403H4.35
		C3.818,5.499,3.388,5.918,3.388,6.439c0,0.105,0.029,0.203,0.062,0.3l0.284,0.415l4.358,6.394L3.649,20.03L3.394,20.4
		c-0.038,0.104-0.066,0.213-0.066,0.328c0,0.462,0.339,0.829,0.786,0.92h0.4h18.347c0,1.438,0.001,2.857,0.001,4.226
		c-0.391,0-0.781-0.001-1.171-0.001c-0.691,0.005-1.139,0.097-1.266,0.307c-0.191,0.312-0.416,0.87-0.563,1.158
		c-0.291,0.574-0.701,0.676-2.563,0.781c-0.365,0.018-0.854,0.009-1.135-0.049c-1.219-0.258-2.391-0.531-3.552-0.81
		c-0.643-0.155-1.295-0.181-1.879-0.014c-1.719,0.494-3.409,0.996-5.072,1.503c-0.471,0.141-0.45,0.318,0.012,0.48
		c0.547,0.195,1.029,0.416,1.646,0.597c1.339,0.389,1.818,0.795,0.696,1.311c-0.301,0.135-0.521,0.225-1.082,0.242
		c-1.517,0.059-3.025,0.135-4.539,0.199c-0.787,0.031-1.307,0.135-1.313,0.393c0,0.654,0,1.305,0.006,1.955
		c0,0.254,0.45,0.377,1.269,0.406c1.022,0.037,2.037,0.133,3.061,0.119c2.756-0.034,3.227,0.777,3.232,0.838
		c0.009,0.125,0.064,0.273-0.143,0.363c-0.792,0.338-1.692,0.657-2.529,0.986C5.56,36.796,5.435,37.171,6.01,37.3
		c1.553,0.47,3.131,0.933,4.71,1.397c0.523,0.154,1.11,0.16,1.701,0.025c0.798-0.181,1.673-0.441,2.354-0.649
		c1.293-0.403,1.766-0.594,2.641-0.422c0.023,0.005,2.047,0.375,2.217,0.616c0.328,0.467,0.549,0.973,0.789,1.463
		c0.113,0.235,0.549,0.346,1.34,0.346c2.197-0.004,4.393-0.004,6.588,0c0.695,0,1.135-0.098,1.27-0.299
		c0.209-0.316,0.414-0.711,0.619-1.174s0.707-0.662,2.496-0.771c0.363-0.023,0.857-0.014,1.131,0.043
		c1.195,0.246,2.348,0.516,3.471,0.791c0.748,0.186,1.459,0.195,2.133,0c1.662-0.48,3.293-0.968,4.918-1.465
		c0.523-0.156,0.438-0.334-0.027-0.504c-0.586-0.212-1.096-0.447-1.748-0.64c-1.225-0.372-1.678-0.738-0.621-1.214
		c0.326-0.148,0.541-0.26,1.209-0.277c1.486-0.049,2.965-0.131,4.438-0.193c0.836-0.037,1.34-0.16,1.34-0.422
		c0-0.641,0-1.28,0-1.924C48.977,31.776,48.537,31.647,47.713,31.618z M14.225,32.935c0.066-1.53,3.792-2.808,8.637-3.104
		c0,2.76,0.001,5.008,0.001,6.281C17.869,35.802,14.147,34.483,14.225,32.935z M27.014,36.13c0-1.271,0.001-3.529,0.001-6.305
		c5.079,0.29,8.928,1.619,8.825,3.18C35.738,34.559,31.916,35.862,27.014,36.13z"/>
	<path d="M40.451,41.459c-0.713,0.194-1.457,0.177-2.244,0c-1.182-0.263-1.783-0.527-3.037-0.771
		c-0.287-0.053-0.811-0.063-1.184-0.042c-1.889,0.108-2.428,0.405-2.711,0.962c-0.137,0.277-0.309,0.744-0.576,0.934
		c-0.266,0.186-0.598,0.291-1.332,0.291c-0.66,0-8.012,0.021-8.674,0c-0.809-0.024-1.143-0.107-1.338-0.291
		c-0.139-0.129-0.346-0.299-0.585-0.934c-0.239-0.633-0.813-0.854-2.694-0.962c-0.375-0.021-0.906-0.011-1.193,0.042
		c-1.257,0.244-1.856,0.509-3.037,0.771c-0.78,0.177-1.531,0.194-2.239,0c-1.751-0.469-6.498-1.646-8.205-2.126
		c-0.274-0.076-0.389-0.155-0.377-0.237v6.041c0.023,0.009,0.31,0.121,0.512,0.184c1.698,0.476,6.437,1.659,8.167,2.127
		c0.71,0.189,1.456,0.171,2.228,0c1.178-0.27,1.769-0.532,3.017-0.775c0.286-0.055,0.804-0.062,1.181-0.039
		c1.877,0.104,2.245,0.203,2.591,0.842c0.229,0.422,0.45,0.738,0.667,1.049c0.141,0.201,0.602,0.293,1.33,0.293
		c0.654,0,7.975,0,8.629,0c0.723,0,1.188-0.092,1.32-0.293c0.227-0.311,0.381-0.597,0.555-1.028c0.166-0.417,0.84-0.759,2.711-0.862
		c0.375-0.022,0.893-0.016,1.182,0.039c1.242,0.243,1.838,0.506,3.014,0.775c0.777,0.171,1.52,0.189,2.23,0
		c1.73-0.468,6.463-1.651,8.158-2.127c0.17-0.051,0.357-0.121,0.451-0.157v-5.959c-0.063,0.044-0.156,0.088-0.307,0.129
		C46.947,39.813,42.199,40.991,40.451,41.459z"/>
	<path d="M1.424,38.788c0.616-0.254,4.061-1.253,2.952-1.82c-0.348-0.182-1.096-0.332-1.804-0.358
		c-0.518-0.017-1.031-0.047-1.549-0.071v2.555C1.042,38.991,1.181,38.889,1.424,38.788z"/>
	<path d="M45.611,36.967c-1.107,0.567,2.336,1.566,2.953,1.82c0.242,0.102,0.383,0.203,0.4,0.305v-2.555
		c-0.518,0.024-1.031,0.055-1.549,0.071C46.707,36.635,45.959,36.786,45.611,36.967z"/>
</g>
</svg>
