<?xml version="1.0" encoding="utf-8"?>
<!-- Generator: Adobe Illustrator 16.0.0, SVG Export Plug-In . SVG Version: 6.00 Build 0)  -->
<!DOCTYPE svg PUBLIC "-//W3C//DTD SVG 1.1//EN" "http://www.w3.org/Graphics/SVG/1.1/DTD/svg11.dtd">
<svg version="1.1" id="圖層_1" xmlns="http://www.w3.org/2000/svg" xmlns:xlink="http://www.w3.org/1999/xlink" x="0px" y="0px"
	 width="50px" height="50px" viewBox="0 0 50 50" enable-background="new 0 0 50 50" xml:space="preserve">
<path d="M47.854,37.122l-3.305-3.297l-2.713,2.721c-0.365,0.366-0.957,0.366-1.322,0.003c-0.365-0.365-0.367-0.957-0.004-1.323
	l2.715-2.721l-3.289-3.28l-5.484,5.501c-0.367,0.366-0.955,0.366-1.322,0.002c-0.363-0.365-0.367-0.957-0.004-1.323l5.486-5.499
	l-3.287-3.28l-2.715,2.721c-0.365,0.367-0.955,0.368-1.322,0.003s-0.369-0.957-0.002-1.322l2.713-2.722l-3.287-3.278l-2.715,2.72
	c-0.365,0.366-0.957,0.366-1.324,0.002c-0.363-0.363-0.365-0.956,0-1.322l2.711-2.721l-3.289-3.279l-2.711,2.72
	c-0.366,0.366-0.958,0.366-1.324,0.002c-0.365-0.363-0.365-0.956-0.002-1.321l2.713-2.722l-3.287-3.278l-2.713,2.721
	c-0.365,0.365-0.956,0.366-1.321,0.002c-0.366-0.365-0.369-0.958-0.004-1.323l2.713-2.721l-3.288-3.279l-5.485,5.5
	c-0.364,0.366-0.956,0.367-1.321,0.002s-0.366-0.956-0.002-1.322l5.485-5.5l-2.732-2.724c-1.201-1.196-1.829-1.195-3.025,0.005
	L2.141,9.855c-1.195,1.199-1.194,1.826,0.007,3.023l35.04,34.938c1.201,1.197,1.828,1.197,3.023-0.004l7.646-7.67
	C49.055,38.945,49.055,38.318,47.854,37.122z"/>
</svg>
