<?xml version="1.0" encoding="iso-8859-1"?>
<!-- Generator: Adobe Illustrator 16.0.0, SVG Export Plug-In . SVG Version: 6.00 Build 0)  -->
<!DOCTYPE svg PUBLIC "-//W3C//DTD SVG 1.1 Tiny//EN" "http://www.w3.org/Graphics/SVG/1.1/DTD/svg11-tiny.dtd">
<svg version="1.1" baseProfile="tiny" id="&#x5716;&#x5C64;_1"
	 xmlns="http://www.w3.org/2000/svg" xmlns:xlink="http://www.w3.org/1999/xlink" x="0px" y="0px" width="50px" height="50px"
	 viewBox="0 0 50 50" xml:space="preserve">
<g>
	<path d="M12.883,22.195c-0.393,0-0.648,0.179-0.721,0.569c-0.107,0.585-0.309,1.174-0.299,1.757
		c0.019,1.06-0.416,1.706-1.477,1.902c-0.204,0.037-0.484,0.023-0.642-0.088c-0.692-0.483-1.357-1.004-2.021-1.528
		c-0.363-0.288-0.734-0.345-1.068-0.025c-0.973,0.929-1.934,1.872-2.879,2.83c-0.268,0.273-0.253,0.602,0.005,0.909
		c0.313,0.37,0.586,0.782,0.936,1.12c0.761,0.741,1.034,1.503,0.396,2.473c-0.17,0.258-0.294,0.424-0.613,0.462
		c-0.862,0.107-1.721,0.247-2.58,0.368c-0.444,0.064-0.742,0.262-0.744,0.749c0,1.226,0,2.454,0.002,3.683
		c0,0.471,0.256,0.707,0.723,0.764c0.58,0.072,1.156,0.193,1.738,0.229c0.852,0.047,1.547,0.239,1.684,1.223
		c0.018,0.121,0.148,0.234,0.152,0.355c0.004,0.229,0.035,0.513-0.082,0.682c-0.449,0.643-0.961,1.244-1.436,1.869
		c-0.131,0.17-0.221,0.374-0.352,0.607c0.125,0.218,0.21,0.457,0.37,0.621c0.88,0.893,1.776,1.767,2.673,2.644
		c0.301,0.291,0.632,0.302,0.97,0.052c0.452-0.339,0.957-0.625,1.343-1.02c0.735-0.752,1.496-0.861,2.375-0.3
		c0.017,0.013,0.041,0.013,0.051,0.025c0.113,0.144,0.3,0.274,0.328,0.437c0.169,0.912,0.311,1.832,0.445,2.75
		c0.066,0.447,0.313,0.65,0.762,0.65c1.246-0.002,2.494-0.002,3.742,0c0.396,0.002,0.647-0.178,0.721-0.563
		c0.119-0.602,0.324-1.205,0.313-1.807c-0.019-1.054,0.442-1.654,1.459-1.855c0.204-0.04,0.483-0.032,0.643,0.076
		c0.677,0.476,1.331,0.98,1.971,1.501c0.421,0.344,0.827,0.368,1.21-0.002c0.943-0.909,1.872-1.831,2.794-2.759
		c0.3-0.304,0.247-0.635-0.015-0.95c-0.333-0.404-0.625-0.851-0.995-1.219c-0.694-0.688-0.953-1.387-0.355-2.282
		c0.189-0.284,0.311-0.487,0.691-0.526c0.844-0.089,1.68-0.239,2.52-0.357c0.476-0.07,0.763-0.298,0.763-0.803
		c-0.001-0.432,0-0.864,0-1.297L12.958,22.195C12.932,22.195,12.908,22.195,12.883,22.195z M19.316,35.626
		c-0.048,2.466-2.122,4.467-4.587,4.418c-2.513-0.048-4.52-2.072-4.484-4.522c0.033-2.458,2.104-4.45,4.587-4.411
		C17.336,31.152,19.363,33.192,19.316,35.626z"/>
	<path d="M47.913,31.762l-3.209-2.829l-2.328,2.642c-0.314,0.355-0.855,0.389-1.211,0.076c-0.355-0.313-0.389-0.854-0.076-1.21
		l2.328-2.642l-3.193-2.814l-4.707,5.34c-0.313,0.356-0.854,0.39-1.209,0.076c-0.355-0.313-0.391-0.854-0.076-1.21l4.707-5.34
		l-3.193-2.814l-2.328,2.642c-0.314,0.355-0.854,0.39-1.209,0.076c-0.355-0.313-0.39-0.854-0.076-1.21l2.328-2.642l-3.193-2.814
		l-2.328,2.641c-0.313,0.355-0.854,0.389-1.21,0.076c-0.354-0.313-0.39-0.854-0.076-1.21l2.328-2.641l-3.193-2.815l-2.329,2.641
		c-0.313,0.355-0.854,0.389-1.21,0.076c-0.355-0.313-0.389-0.854-0.076-1.21l2.328-2.641l-3.192-2.814l-2.328,2.642
		c-0.313,0.355-0.854,0.389-1.21,0.076c-0.355-0.313-0.389-0.855-0.076-1.21l2.328-2.642l-3.193-2.814l-4.707,5.34
		c-0.313,0.355-0.854,0.389-1.209,0.076c-0.356-0.313-0.39-0.854-0.076-1.209l4.707-5.341l-2.652-2.337
		c-1.165-1.027-1.738-0.991-2.766,0.174L4.562,9.394c-1.026,1.165-0.991,1.738,0.175,2.765l34.022,29.988
		c1.164,1.027,1.738,0.992,2.766-0.174l6.563-7.446C49.114,33.363,49.077,32.789,47.913,31.762z"/>
</g>
</svg>
