<?xml version="1.0" encoding="iso-8859-1"?>
<!-- Generator: Adobe Illustrator 16.0.0, SVG Export Plug-In . SVG Version: 6.00 Build 0)  -->
<!DOCTYPE svg PUBLIC "-//W3C//DTD SVG 1.1 Tiny//EN" "http://www.w3.org/Graphics/SVG/1.1/DTD/svg11-tiny.dtd">
<svg version="1.1" baseProfile="tiny" id="&#x5716;&#x5C64;_1"
	 xmlns="http://www.w3.org/2000/svg" xmlns:xlink="http://www.w3.org/1999/xlink" x="0px" y="0px" width="50px" height="50px"
	 viewBox="0 0 50 50" xml:space="preserve">
<g>
	<path d="M8.811,38.031h-6.07C1.78,38.031,1,38.902,1,39.976v7.081C1,48.13,1.78,49,2.741,49h6.07c0.961,0,1.738-0.869,1.738-1.942
		v-7.081C10.549,38.902,9.772,38.031,8.811,38.031z"/>
	<path d="M21.626,25.247h-6.07c-0.961,0-1.738,0.869-1.738,1.942v19.868c0,1.071,0.777,1.941,1.738,1.941h6.07
		c0.959,0,1.738-0.87,1.738-1.941V27.189C23.365,26.116,22.585,25.247,21.626,25.247z"/>
	<path d="M34.443,30.102h-6.07c-0.961,0-1.74,0.87-1.74,1.943v15.011c0,1.072,0.779,1.942,1.74,1.942h6.07
		c0.961,0,1.74-0.87,1.74-1.942V32.045C36.184,30.972,35.404,30.102,34.443,30.102z"/>
	<path d="M47.262,19.227h-6.072c-0.961,0-1.74,0.871-1.74,1.944v25.886c0,1.073,0.779,1.942,1.74,1.942h6.072
		C48.221,49,49,48.13,49,47.057V21.171C49,20.098,48.221,19.227,47.262,19.227z"/>
	<path d="M28.377,18.94c0.492,0.464,1.248,0.49,1.77,0.061L44.004,7.613l2.408,2.437l0.063,0.02c0.152,0.094,0.324,0.164,0.51,0.197
		c0.049,0.008,0.094-0.009,0.143-0.007l0.127,0.037c0.084,0,0.16-0.034,0.24-0.051c0.029-0.004,0.059-0.009,0.09-0.015
		c0.637-0.155,1.119-0.71,1.119-1.398l-0.002-6.368C48.703,1.655,48.053,0.999,47.25,1l-6.318,0.002
		c-0.104,0-0.197,0.038-0.293,0.06c-0.029,0.006-0.059,0.011-0.092,0.017c-0.143,0.039-0.271,0.101-0.395,0.186
		c-0.035,0.021-0.068,0.042-0.098,0.067c-0.105,0.085-0.201,0.184-0.281,0.295c-0.029,0.043-0.059,0.077-0.082,0.124
		c-0.07,0.119-0.113,0.244-0.148,0.385c-0.004,0.03-0.021,0.054-0.027,0.088c-0.008,0.021,0.006,0.044,0,0.064
		c-0.008,0.062-0.037,0.116-0.035,0.181l0.045,0.1c0.029,0.344,0.166,0.65,0.406,0.886l0.023,0.063l2.141,2.165l-12.74,10.467
		l-8.146-7.682c-0.287-0.271-0.674-0.401-1.07-0.357c-0.389,0.044-0.74,0.257-0.965,0.586l-8.809,13.071l-7.348-4.259
		c-0.645-0.372-1.469-0.15-1.84,0.5c-0.369,0.65-0.146,1.479,0.498,1.854l8.432,4.884c0.211,0.123,0.441,0.18,0.67,0.18
		c0.432,0,0.854-0.209,1.113-0.593l8.627-12.801L28.377,18.94z"/>
</g>
</svg>
