<?xml version="1.0" encoding="iso-8859-1"?>
<!-- Generator: Adobe Illustrator 16.0.0, SVG Export Plug-In . SVG Version: 6.00 Build 0)  -->
<!DOCTYPE svg PUBLIC "-//W3C//DTD SVG 1.1 Tiny//EN" "http://www.w3.org/Graphics/SVG/1.1/DTD/svg11-tiny.dtd">
<svg version="1.1" baseProfile="tiny" id="&#x5716;&#x5C64;_1"
	 xmlns="http://www.w3.org/2000/svg" xmlns:xlink="http://www.w3.org/1999/xlink" x="0px" y="0px" width="50px" height="50px"
	 viewBox="0 0 50 50" xml:space="preserve">
<g>
	<path d="M29.776,13.975c1.075-3.537,4.382-6.113,8.291-6.113c0.02,0,0.037,0.001,0.054,0.001c0.002-0.087,0.014-0.172,0.014-0.261
		C38.135,3.956,35.159,1,31.487,1c-3.671,0-6.644,2.956-6.644,6.603C24.844,10.659,26.936,13.224,29.776,13.975z"/>
	<path d="M26.921,32.708c0.281-0.447,0.432-0.897,0.453-1.354c0.022-0.456-0.062-0.88-0.245-1.269
		c-0.157-0.328-0.415-0.72-0.734-1.152c-0.062-0.082-0.104-0.156-0.172-0.242c-0.455-0.601-0.728-1.03-0.826-1.288
		c-0.099-0.258-0.071-0.504,0.077-0.741c0.129-0.204,0.323-0.333,0.577-0.388c0.256-0.055,0.52,0.003,0.793,0.172
		c0.329,0.207,0.517,0.496,0.584,0.852c0.055,0.271,0.049,0.574-0.043,0.931l1.898,0.371c0.365-1.214,0.111-2.23-0.743-3.058
		l0.604-0.958L27.405,23.5l-0.636,1.007c-0.464-0.127-0.928-0.153-1.386-0.05c-0.792,0.177-1.422,0.642-1.898,1.393
		c-0.279,0.442-0.424,0.899-0.436,1.373c-0.016,0.473,0.08,0.903,0.28,1.285c0.107,0.206,0.261,0.451,0.455,0.726
		c0.166,0.241,0.362,0.504,0.596,0.797c0.378,0.482,0.59,0.844,0.633,1.093c0.003,0.006,0.006,0.015,0.006,0.021
		c0.04,0.247-0.009,0.474-0.138,0.679c-0.142,0.225-0.338,0.35-0.571,0.414c-0.049,0.017-0.086,0.045-0.139,0.052
		c-0.304,0.042-0.618-0.037-0.937-0.237c-0.362-0.226-0.581-0.522-0.669-0.89c-0.083-0.344-0.046-0.747,0.114-1.216l-1.905-0.548
		c-0.436,1.438-0.197,2.602,0.694,3.499l-0.611,0.97l1.739,1.086l0.618-0.979c0.571,0.194,1.133,0.257,1.683,0.151
		C25.753,33.96,26.426,33.488,26.921,32.708z"/>
	<path d="M14.313,14.51c-0.903-0.566-2.096-0.294-2.664,0.606l-5.244,8.302c-0.571,0.899-0.294,2.085,0.609,2.649l9.541,5.945
		c-1.137-2.499-1.183-5.264,0.394-7.76c1.579-2.497,4.144-3.726,6.905-3.797L14.313,14.51z M14.288,22.594
		c-0.488,0.776-1.518,1.009-2.297,0.522c-0.781-0.487-1.014-1.508-0.526-2.283c0.492-0.773,1.518-1.008,2.298-0.521
		C14.543,20.797,14.78,21.821,14.288,22.594z"/>
	<path d="M31.958,17.382c0,0.159,0.016,0.314,0.024,0.47l9.082,5.661c2.453-0.97,4.19-3.348,4.19-6.131
		c0-3.646-2.979-6.603-6.648-6.603C34.936,10.78,31.958,13.737,31.958,17.382z"/>
	<path d="M47.725,31.446l-2.191-1.364l-12.178-7.59L13.105,9.864c-1.275-0.793-2.961-0.409-3.76,0.856L1.417,23.269
		c-0.798,1.265-0.414,2.941,0.86,3.735l34.618,21.583c1.275,0.793,2.961,0.408,3.76-0.856l7.93-12.55
		C49.383,33.917,48.996,32.239,47.725,31.446z M47.748,34.662l-7.925,12.55c-0.25,0.391-0.637,0.663-1.092,0.767
		c-0.45,0.103-0.917,0.024-1.314-0.222L2.802,26.175c-0.813-0.508-1.06-1.577-0.55-2.386l7.926-12.549
		c0.249-0.392,0.636-0.664,1.087-0.768c0.455-0.102,0.922-0.024,1.315,0.222l20.954,13.063l10.764,6.711l2.9,1.807
		C48.013,32.783,48.259,33.853,47.748,34.662z"/>
	<path d="M42.987,32.383l-3.027-1.886l-5.145-3.208l-1.37-0.853c1.137,2.499,1.139,5.329-0.439,7.828
		c-1.576,2.496-4.099,3.658-6.86,3.729l9.539,5.946c0.907,0.565,2.099,0.295,2.666-0.605l5.245-8.301
		C44.167,34.134,43.891,32.948,42.987,32.383z M38.492,37.684c-0.488,0.774-1.518,1.009-2.298,0.522s-1.014-1.507-0.524-2.283
		c0.491-0.774,1.518-1.009,2.298-0.523C38.748,35.887,38.983,36.909,38.492,37.684z"/>
</g>
</svg>
