<?xml version="1.0" encoding="iso-8859-1"?>
<!-- Generator: Adobe Illustrator 16.0.0, SVG Export Plug-In . SVG Version: 6.00 Build 0)  -->
<!DOCTYPE svg PUBLIC "-//W3C//DTD SVG 1.1 Tiny//EN" "http://www.w3.org/Graphics/SVG/1.1/DTD/svg11-tiny.dtd">
<svg version="1.1" baseProfile="tiny" id="&#x5716;&#x5C64;_1"
	 xmlns="http://www.w3.org/2000/svg" xmlns:xlink="http://www.w3.org/1999/xlink" x="0px" y="0px" width="50px" height="50px"
	 viewBox="0 0 50 50" xml:space="preserve">
<g>
	<path d="M24.967,40.471C11.73,40.471,1,37.855,1,34.627v8.526C1,46.381,11.73,49,24.967,49c13.232,0,23.967-2.618,23.967-5.846
		v-8.526C48.934,37.855,38.199,40.471,24.967,40.471z"/>
	<path d="M25.891,25.748c0,0,0.029,0.437-0.029,0.895c-0.066,0.459-0.193,1.052-0.193,1.052c-0.424,2.208-4.289,4.094-8.993,4.039
		c-8.583-0.094-8.71-4.212-8.71-4.212C3.664,28.584,1,30.052,1,31.67c0,3.254,10.728,5.891,23.967,5.891
		c13.234,0,23.967-2.637,23.967-5.891C48.934,28.457,38.916,25.809,25.891,25.748z"/>
	<path d="M45.414,8.361H23.346c0.001-2.076,0.002-3.496,0.002-3.499C23.348,2.728,20.4,1,16.76,1c-3.64,0-6.588,1.729-6.588,3.862
		c0,0.011,0.014,20.104,0.014,20.104c0.129,2.063,3.017,3.72,6.574,3.72c3.561,0,6.449-1.657,6.574-3.72
		c0,0,0.002-2.608,0.004-5.942H49v-8.147L45.414,8.361z"/>
</g>
</svg>
