<?xml version="1.0" encoding="utf-8"?>
<!-- Generator: Adobe Illustrator 14.0.0, SVG Export Plug-In . SVG Version: 6.00 Build 43363)  -->
<!DOCTYPE svg PUBLIC "-//W3C//DTD SVG 1.1 Tiny//EN" "http://www.w3.org/Graphics/SVG/1.1/DTD/svg11-tiny.dtd">
<svg version="1.1" baseProfile="tiny" id="Layer_1" xmlns="http://www.w3.org/2000/svg" xmlns:xlink="http://www.w3.org/1999/xlink"
	 x="0px" y="0px" width="50px" height="50px" viewBox="0 0 50 50" xml:space="preserve">
<path d="M38.295,27.869C38.495,26.943,38.6,25.985,38.6,25s-0.105-1.942-0.305-2.868L49,25C49,11.745,38.257,1,25,1l2.871,10.705
	c-0.926-0.198-1.887-0.305-2.871-0.305s-1.942,0.106-2.865,0.305L25,1C11.747,1,1,11.745,1,25l10.708-2.868
	c-0.199,0.926-0.308,1.884-0.308,2.868s0.108,1.942,0.308,2.868L1,25c0,13.257,10.746,24,24,24l-2.865-10.705
	C23.058,38.492,24.016,38.6,25,38.6s1.945-0.108,2.871-0.305L25,49c13.257,0,24-10.743,24-24L38.295,27.869z M45.787,13
	l-7.837,7.837c-0.598-1.863-1.585-3.553-2.871-4.969L45.787,13z M37,4.215l-2.865,10.707c-1.418-1.283-3.105-2.272-4.969-2.87
	L37,4.215z M20.84,12.052c-1.863,0.598-3.554,1.587-4.969,2.87L13,4.215L20.84,12.052z M4.217,13l10.705,2.868
	c-1.283,1.416-2.271,3.105-2.868,4.969L4.217,13z M4.217,37l7.837-7.837c0.598,1.863,1.585,3.551,2.868,4.969L4.217,37z M13,45.787
	l2.871-10.708c1.415,1.283,3.105,2.271,4.969,2.868L13,45.787z M13,25c0-6.627,5.373-12,12-12s12,5.373,12,12s-5.373,12-12,12
	S13,31.627,13,25z M29.167,37.947c1.863-0.598,3.551-1.585,4.969-2.868L37,45.787L29.167,37.947z M35.079,34.132
	c1.286-1.418,2.273-3.105,2.871-4.969L45.787,37L35.079,34.132z"/>
</svg>
