<?xml version="1.0" encoding="utf-8"?>
<!-- Generator: Adobe Illustrator 14.0.0, SVG Export Plug-In . SVG Version: 6.00 Build 43363)  -->
<!DOCTYPE svg PUBLIC "-//W3C//DTD SVG 1.1 Tiny//EN" "http://www.w3.org/Graphics/SVG/1.1/DTD/svg11-tiny.dtd">
<svg version="1.1" baseProfile="tiny" id="Layer_1" xmlns="http://www.w3.org/2000/svg" xmlns:xlink="http://www.w3.org/1999/xlink"
	 x="0px" y="0px" width="50px" height="50px" viewBox="0 0 50 50" xml:space="preserve">
<g>
	<path d="M32.561,7.964c-0.981-0.097-1.412-0.407-1.802-1.143c-0.258-0.331-0.612-0.463-0.97-0.463
		c-0.524,0-1.063,0.284-1.345,0.636c-0.308,0.384-0.586,0.779-1.014,1.055c-0.076,0.05-0.146,0.103-0.234,0.141
		c-0.791,0.366-2.701,1.148-2.883,1.948c-0.363,0.797-1.222,3.419-2.098,4.052c-0.873,0.636-0.896,1.137-1.125,1.849
		c-0.275,0.876-0.445,1.819-0.908,2.581c-0.873,1.462-3.111,3.823-3.246,4.805c-0.132,0.976-0.674,3.562-0.709,5.266
		c-0.035,1.716,0,2.548,0.293,2.996c0.299,0.442,1.717,2.52,1.884,3.5c0.173,0.977,1.151,1.741,1.392,1.981
		c1.292,1.295,3.246,3,3.135,4.342c-0.023,0.161-0.023,0.328-0.018,0.493c0.032,0.676,0.281,1.323,0.557,1.458
		c0.135,0.069,0.457,0.182,0.791,0.182c0.504,0,1.028-0.267,0.94-1.374c-0.003-0.032-0.015-0.088-0.021-0.135
		c-0.094-0.665-0.56-2.546-0.105-3.867c0.272-0.773,0.48-1.576,0.741-2.358c0.103-0.284,0.246-0.562,0.431-0.806
		c0.911-1.175,1.805-2.382,2.42-3.756c0.234-0.516,0.372-1.096,0.656-1.573c0.809-1.359,1.225-2.83,1.521-4.368
		c0.255-1.295,0.952-3.882,0.976-4.777c0.015-0.895-0.372-1.622-0.05-2.427c0.469-1.198,1.485-3.328,1.515-4.31
		c0.026-0.984-0.527-1.925-0.516-2.544c0.012-0.74,0.316-1.012,0.598-1.293c0.123-0.12,0.237-0.24,0.325-0.401
		C33.982,9.112,33.543,8.061,32.561,7.964z"/>
	<path d="M25,1C11.763,1,1,11.767,1,25s10.764,24,24,24c13.23,0,24-10.767,24-24S38.23,1,25,1z M27.865,43.114
		c0.006,0.053-0.041,1.31-0.604,2.81c-0.422,1.125-1.992,1.717-3.053,1.717c-1.011,0-1.819-0.361-2.033-0.472
		c-1.705-0.844-1.523-2.933-2.083-4.468c-0.003-0.009-0.012-0.021-0.018-0.032C12.338,40.51,6.639,33.414,6.639,25
		c0-9.296,6.952-16.983,15.926-18.179c0.835-0.908,2.657-1.04,3.665-1.96c1.078-0.984,2.212-2.736,4.031-2.438
		c1.819,0.297,1.685,1.061,2.953,1.969c1.312,0.938,2.625,0.422,3.516,1.5c0.806,0.973,0.891,2.438-0.064,3.943
		c-0.164,0.258-0.305,0.479-0.454,0.659c4.339,3.362,7.146,8.607,7.146,14.505C43.357,34.146,36.628,41.729,27.865,43.114z"/>
</g>
</svg>
