<?xml version="1.0" encoding="utf-8"?>
<!-- Generator: Adobe Illustrator 14.0.0, SVG Export Plug-In . SVG Version: 6.00 Build 43363)  -->
<!DOCTYPE svg PUBLIC "-//W3C//DTD SVG 1.1//EN" "http://www.w3.org/Graphics/SVG/1.1/DTD/svg11.dtd">
<svg version="1.1" id="Layer_1" xmlns="http://www.w3.org/2000/svg" xmlns:xlink="http://www.w3.org/1999/xlink" x="0px" y="0px"
	 width="50px" height="50px" viewBox="0 0 50 50" enable-background="new 0 0 50 50" xml:space="preserve">
<g>
	<path d="M35.044,36.596V49c6.287-2.628,11.314-7.649,13.957-13.931H36.573C35.729,35.069,35.044,35.755,35.044,36.596z"/>
	<path d="M13.493,34.891H0.999C3.617,41.254,8.679,46.349,15.02,49V36.414C15.02,35.576,14.338,34.891,13.493,34.891z"/>
	<path d="M35.044,1v12.404c0,0.838,0.686,1.522,1.529,1.522h12.422C46.358,8.649,41.325,3.626,35.044,1z"/>
	<path d="M15.02,13.582V1C8.68,3.651,3.618,8.745,0.999,15.105h12.494C14.338,15.105,15.02,14.421,15.02,13.582z"/>
	<path d="M30.843,9.867c-0.873-0.085-1.26-0.363-1.611-1.014c-0.562-0.727-1.635-0.375-2.057,0.154
		c-0.322,0.4-0.592,0.828-1.11,1.059c-0.706,0.328-2.405,1.024-2.569,1.731c-0.322,0.708-1.089,3.037-1.868,3.599
		c-0.777,0.565-0.8,1.008-1.003,1.642c-0.245,0.779-0.398,1.619-0.812,2.291c-0.775,1.299-2.769,3.397-2.889,4.269
		c-0.119,0.866-0.603,3.166-0.633,4.683c-0.035,1.521,0,2.259,0.262,2.654c0.264,0.396,1.528,2.238,1.678,3.105
		c0.153,0.876,1.025,1.556,1.239,1.767c1.149,1.148,2.892,2.666,2.792,3.858c-0.1,0.724,0.176,1.579,0.48,1.729
		c0.302,0.152,1.673,0.571,1.544-1.058c-0.041-0.466-0.545-2.303-0.111-3.551c0.24-0.691,0.428-1.406,0.656-2.098
		c0.094-0.252,0.223-0.504,0.387-0.715c0.812-1.043,1.605-2.115,2.156-3.337c0.208-0.454,0.334-0.973,0.586-1.397
		c0.721-1.207,1.09-2.517,1.354-3.88c0.223-1.151,0.85-3.448,0.867-4.242c0.012-0.797-0.328-1.443-0.047-2.156
		c0.422-1.065,1.324-2.956,1.354-3.832c0.023-0.875-0.469-1.707-0.457-2.257c0.012-0.936,0.557-1.03,0.82-1.506
		C32.108,10.888,31.716,9.953,30.843,9.867z"/>
</g>
</svg>
