<?xml version="1.0" encoding="utf-8"?>
<!-- Generator: Adobe Illustrator 14.0.0, SVG Export Plug-In . SVG Version: 6.00 Build 43363)  -->
<!DOCTYPE svg PUBLIC "-//W3C//DTD SVG 1.1 Tiny//EN" "http://www.w3.org/Graphics/SVG/1.1/DTD/svg11-tiny.dtd">
<svg version="1.1" baseProfile="tiny" id="Layer_1" xmlns="http://www.w3.org/2000/svg" xmlns:xlink="http://www.w3.org/1999/xlink"
	 x="0px" y="0px" width="50px" height="50px" viewBox="0 0 50 50" xml:space="preserve">
<g>
	<path d="M22.662,41.148c-0.299-0.146-0.57-0.99-0.47-1.705c0.097-1.172-1.614-2.666-2.744-3.797
		c-0.209-0.211-1.065-0.879-1.216-1.74c-0.148-0.855-1.389-2.669-1.648-3.059c-0.258-0.39-0.292-1.119-0.258-2.616
		c0.031-1.494,0.505-3.757,0.623-4.611c0.117-0.857,2.074-2.924,2.836-4.203c0.406-0.664,0.557-1.491,0.797-2.257
		c0.201-0.624,0.221-1.062,0.984-1.617c0.766-0.554,1.518-2.846,1.837-3.543c0.158-0.7,1.828-1.386,2.522-1.705
		c0.507-0.231,0.773-0.652,1.09-1.044c0.413-0.521,1.465-0.869,2.024-0.152c0.34,0.642,0.721,0.913,1.576,0.999
		c0.861,0.085,1.242,1.005,0.99,1.477c-0.255,0.469-0.791,0.56-0.806,1.482c-0.012,0.542,0.472,1.364,0.448,2.225
		c-0.026,0.858-0.914,2.723-1.324,3.771c-0.281,0.706,0.056,1.34,0.041,2.125c-0.018,0.782-0.627,3.045-0.853,4.178
		c-0.258,1.347-0.618,2.634-1.327,3.823c-0.252,0.416-0.369,0.926-0.574,1.374c-0.539,1.204-1.321,2.259-2.121,3.287
		c-0.158,0.208-0.287,0.457-0.375,0.706c-0.229,0.68-0.41,1.383-0.647,2.062c-0.425,1.23,0.073,3.041,0.108,3.498
		C24.305,41.711,22.958,41.298,22.662,41.148z"/>
	<g>
		<path d="M14.079,1v12.561c0,0.382-0.311,0.693-0.693,0.693H1v1h12.387c0.933,0,1.693-0.76,1.693-1.693V1H14.079z"/>
		<path d="M9.579,10.754c0.554,0,1-0.448,1-1V1H1v9.754H9.579z"/>
	</g>
	<g>
		<path d="M49,14.08H36.44c-0.384,0-0.694-0.311-0.694-0.693V1h-0.999v12.387c0,0.933,0.759,1.693,1.693,1.693H49V14.08z"/>
		<path d="M39.247,9.58c0,0.554,0.445,1,0.999,1H49V1h-9.753V9.58z"/>
	</g>
	<g>
		<path d="M14.079,49V36.438c0-0.381-0.311-0.691-0.693-0.691H1v-1.002h12.387c0.933,0,1.693,0.762,1.693,1.693V49H14.079z"/>
		<path d="M9.579,39.244c0.554,0,1,0.451,1,1.002V49H1v-9.756H9.579z"/>
	</g>
	<g>
		<path d="M49,35.922H36.44c-0.384,0-0.694,0.311-0.694,0.691V49h-0.999V36.613c0-0.932,0.759-1.693,1.693-1.693H49V35.922z"/>
		<path d="M39.247,40.422c0-0.557,0.445-1.002,0.999-1.002H49V49h-9.753V40.422z"/>
	</g>
</g>
</svg>
