<?xml version="1.0" encoding="utf-8"?>
<!-- Generator: Adobe Illustrator 14.0.0, SVG Export Plug-In . SVG Version: 6.00 Build 43363)  -->
<!DOCTYPE svg PUBLIC "-//W3C//DTD SVG 1.1 Tiny//EN" "http://www.w3.org/Graphics/SVG/1.1/DTD/svg11-tiny.dtd">
<svg version="1.1" baseProfile="tiny" id="Layer_1" xmlns="http://www.w3.org/2000/svg" xmlns:xlink="http://www.w3.org/1999/xlink"
	 x="0px" y="0px" width="50px" height="50px" viewBox="0 0 50 50" xml:space="preserve">
<g>
	<path d="M25.957,27.449c0.018-0.404,0.035-0.788,0.07-1.163c0.037-0.404,0.095-1.688,0.15-2.077
		c0.021-0.149,0.043-0.302,0.062-0.454c0.034-0.252,0.123-0.923,0.014-1.049c-0.021-0.023-0.103-0.053-0.268-0.053
		c-0.175,0-0.412,0.029-0.792,0.088c-0.352,0.059-0.627,0.141-0.839,0.255c-0.126,0.067-0.249,0.208-0.262,0.267
		c-0.095,1.169-0.167,3.246-0.242,4.515c-0.015,0.252-0.029,0.507-0.045,0.771l2.133-0.732
		C25.945,27.692,25.951,27.569,25.957,27.449z"/>
	<path d="M28.534,27.03c0.057-0.009,0.11-0.018,0.164-0.029c0.408-0.067,0.828-0.138,1.253-0.158
		c0.96-0.041,1.411-1.354,1.661-2.479c0.182-0.814,0.319-1.509,0.146-1.723c-0.149-0.188-0.719-0.211-1.199-0.211
		c-0.162,0-0.338,0-0.527,0.006c-1.236,0.032-1.236,0.032-1.4,1.277c-0.049,0.369-0.078,1.641-0.092,2.077
		c-0.01,0.375-0.008,0.759-0.006,1.134C28.534,26.96,28.534,26.995,28.534,27.03z"/>
	<path d="M21.549,27.991c-0.042-0.281-0.042-0.557-0.042-0.826c0-0.12,0-0.24-0.003-0.357c-0.006-0.182-0.01-0.36-0.013-0.539
		c-0.009-0.463-0.018-1.822-0.072-2.279c-0.01-0.094-0.13-0.27-0.195-0.305c-0.003,0-0.01-0.003-0.022-0.003
		c-0.483,0-1.654,0.829-1.695,1.125c-0.088,1.028-0.126,2.965-0.164,3.987c-0.012,0.287-0.022,0.574-0.034,0.861l2.49-0.703
		c-0.012-0.041-0.025-0.082-0.037-0.123C21.67,28.53,21.59,28.27,21.549,27.991z"/>
	<path d="M25,1C11.744,1,1,11.743,1,25s10.745,24,24,24c13.257,0,24-10.743,24-24S38.257,1,25,1z M15.541,15.361
		c1.329-1.488,2.65-3.149,3.318-5.197c0.196-0.606,0.23-1.011-0.157-1.427c-0.161-0.176-0.198-0.404-0.229-0.604
		c-0.01-0.064-0.021-0.129-0.035-0.188L18.335,7.56l0.401-0.029c0.067-0.003,0.135-0.012,0.202-0.018
		c0.168-0.018,0.347-0.035,0.526-0.021c0.19,0.015,0.382,0.023,0.576,0.035c0.571,0.032,1.162,0.062,1.736,0.19
		c1.141,0.252,2.123,0.888,2.837,1.837c0.215,0.287,0.454,0.671,0.366,1.075c-0.086,0.41-0.467,0.665-0.788,0.841
		c-0.85,0.469-1.273,1.269-1.721,2.112c-0.003,0.003-0.006,0.006-0.009,0.012c0.07-0.018,0.139-0.032,0.209-0.047
		c0.453-0.108,0.921-0.22,1.364-0.363c0.466-0.146,0.935-0.293,1.402-0.439c1.494-0.463,3.039-0.943,4.496-1.547
		c0.962-0.401,1.852-0.551,2.77-0.472c0.516,0.044,1.031,0.231,1.383,0.495c0.369,0.281,0.548,0.665,0.486,1.049
		c-0.064,0.393-0.375,0.721-0.829,0.876l-0.079,0.026c-0.363,0.123-0.732,0.252-1.131,0.267c-2.639,0.111-5.193,0.932-7.449,1.655
		c-0.833,0.27-1.655,0.51-2.53,0.51c-0.422,0-0.819-0.056-1.211-0.17c-0.003,0-0.01-0.003-0.026-0.003
		c-0.158,0-0.444,0.158-0.634,0.261l-0.044,0.023c-0.735,0.404-1.478,0.82-2.197,1.225c-0.702,0.396-1.405,0.791-2.111,1.178
		c-0.331,0.182-0.677,0.275-1.027,0.275c-0.478,0-0.968-0.17-1.503-0.51l-0.327-0.211L15.541,15.361z M14.812,38.802
		c-0.234,0.475-0.368,0.908-0.394,1.286c-0.06,0.853-0.615,1.28-1.104,1.658c-0.214,0.164-0.415,0.319-0.564,0.501
		c-0.144,0.17-0.36,0.267-0.611,0.267c-0.502,0-1.042-0.363-1.282-0.861c-0.557-1.157-0.495-2.396,0.168-3.396
		c0.582-0.879,1.25-1.679,1.957-2.525c0.303-0.363,0.612-0.729,0.92-1.113l0.265-0.328l0.255,0.337
		c0.034,0.044,0.073,0.085,0.113,0.126c0.122,0.129,0.272,0.287,0.283,0.51c0.016,0.322,0.075,0.639,0.136,0.979
		C15.102,37.062,15.256,37.911,14.812,38.802z M21.437,41.828c-0.179,0.091-0.381,0.111-0.52,0.111
		c-0.255,0-0.498-0.062-0.669-0.173c-0.91-0.58-1.389-1.494-1.427-2.722c-0.029-0.976-0.063-1.954-0.098-2.953l-0.066-1.901
		l0.517,0.299c1.582,0.92,2.506,2.013,2.912,3.439c0.149,0.527,0.267,1.049,0.393,1.623C22.757,40.829,22.562,41.251,21.437,41.828z
		 M24.919,30.663c-1.537,0.346-3.127,0.703-4.68,1.084c-1.535,0.381-3.312,0.943-4.844,2.241l-0.292,0.249l-0.202-0.328
		c-0.139-0.223-0.353-0.416-0.579-0.615c-0.538-0.486-1.204-1.087-0.728-2.244l0.108-0.264l0.275,0.067
		c0.19,0.047,0.379,0.07,0.574,0.07c0.628,0,1.204-0.237,1.813-0.492c0.341-0.144,0.691-0.287,1.058-0.39l-1.518-4.148
		c-1.5,0.27-2.496,0.832-3.208,1.811c-0.343,0.469-0.696,0.697-1.08,0.697c-0.313,0-0.617-0.152-0.927-0.463
		c-0.686-0.691-1.323-1.447-1.939-2.174l-0.306-0.357c-0.127-0.152-0.155-0.393-0.141-0.557c0.015-0.158,0.072-0.275,0.167-0.352
		c0.321-0.258,0.586-0.428,0.836-0.428c0.063,0,0.123,0.012,0.179,0.032c0.211,0.079,0.423,0.12,0.647,0.12
		c0.444,0,0.876-0.152,1.333-0.313c0.223-0.079,0.453-0.158,0.687-0.223c0.643-0.173,1.293-0.372,1.923-0.565
		c0.533-0.164,1.085-0.334,1.633-0.489c0.359-0.103,0.338-0.636,0.302-0.806c-0.12-0.548-0.243-1.096-0.368-1.652l-0.223-0.996
		l0.259-0.105c0.287-0.117,0.584-0.176,0.882-0.176c1.166,0,2.199,1.31,2.804,2.783c0.098-0.032,0.198-0.064,0.296-0.094
		c0.554-0.176,1.125-0.354,1.674-0.562c0.037-0.035,0.086-0.571,0.091-0.615c-0.037-0.264-0.04-0.551-0.042-0.826
		c-0.009-0.753-0.016-1.403-0.623-1.931l-0.674-0.586l0.892,0.006c0.875,0.006,1.654,0.27,2.452,0.829
		c0.833,0.583,0.873,1.819,0.721,2.502c0.171-0.038,0.338-0.076,0.501-0.114c0.727-0.167,1.354-0.308,1.977-0.48
		c0.107-0.032,0.264-0.659,0.357-1.011c0.128-0.475,0.075-1.002-0.119-1.198c-0.046-0.044-0.107-0.091-0.172-0.138
		c-0.133-0.097-0.299-0.217-0.416-0.416l-0.209-0.343l0.381-0.138c1.117-0.398,2.198-0.258,3.323,0.454
		c0.331,0.208,0.533,0.524,0.539,0.847c0.004,0.223-0.08,0.551-0.512,0.85c-0.012,0.012-0.033,0.501-0.053,0.551
		c0.057,0.032,0.116,0.059,0.145,0.059c0.804-0.021,1.865-0.059,2.939-0.158c0.026-0.009,0.117-0.539,0.193-0.75
		c0.123-0.334,0.123-0.762,0.006-0.949c-0.064-0.103-0.152-0.199-0.246-0.305c-0.047-0.053-0.094-0.108-0.141-0.164l-0.208-0.246
		l0.243-0.211c0.568-0.495,1.409-0.779,2.303-0.779c0.809,0,1.564,0.24,2.074,0.662c0.369,0.305,0.557,0.615,0.574,0.949
		c0.012,0.316-0.129,0.63-0.428,0.929c-0.088,0.091-0.176,0.645-0.275,0.782c0.135,0.044,0.264,0.085,0.393,0.126
		c0.58,0.188,1.128,0.36,1.67,0.545c1.084,0.366,1.784,1.087,2.086,2.147c0.149,0.527,0.07,1.049-0.211,1.424
		c-0.325,0.428-0.873,0.627-1.479,0.53c-0.267-0.044-0.536-0.085-0.803-0.123c-0.812-0.123-1.649-0.249-2.47-0.413
		c-0.088-0.021-0.173-0.029-0.252-0.029c-0.223,0-0.501,0.059-0.709,0.527c-0.188,0.416-0.343,1.731-0.507,2.191
		c-0.044,0.123-0.085,0.243-0.132,0.369l0.478,0.234c0.545,0.27,1.069,0.527,1.591,0.797c0.876,0.445,1.386,1.055,1.562,1.863
		c0.135,0.621,0.032,1.184-0.284,1.579c-0.378,0.466-1.031,0.653-1.77,0.501c-0.387-0.082-0.791-0.196-1.236-0.354
		c-1.752-0.624-3.568-0.94-5.393-0.94c-1.232,0-2.5,0.144-3.767,0.428L24.919,30.663z M31.079,41.649
		c-0.154,0.047-0.33,0.07-0.523,0.07c-0.395,0-0.938-0.111-1.273-0.419c-0.967-0.888-1.914-1.919-2.288-3.454
		c-0.204-0.832-0.585-1.629-0.989-2.473c-0.183-0.381-0.372-0.779-0.549-1.184l-0.243-0.562l0.604,0.105
		c0.088,0.015,0.177,0.023,0.265,0.035c0.22,0.023,0.448,0.05,0.667,0.146c2.253,1.011,4.856,2.625,5.015,6.167
		C31.78,40.472,31.609,41.479,31.079,41.649z M41.192,41.972c-0.287,0.196-0.665,0.226-0.867,0.226
		c-0.264,0-0.521-0.047-0.727-0.132c-0.791-0.334-1.377-0.732-1.752-1.184c-1.321-1.611-2.616-3.287-3.87-4.904
		c-0.372-0.48-0.741-0.961-1.116-1.441c-0.088-0.111-0.141-0.229-0.205-0.381c-0.035-0.082-0.076-0.173-0.132-0.287l-0.296-0.609
		l0.662,0.141c0.158,0.035,0.293,0.062,0.416,0.085c0.24,0.047,0.448,0.085,0.65,0.155c2.701,0.905,4.922,2.42,6.604,4.503
		c0.557,0.688,0.879,1.597,1.096,2.312C41.79,40.888,41.596,41.69,41.192,41.972z"/>
</g>
</svg>
