<?xml version="1.0" encoding="utf-8"?>
<!-- Generator: Adobe Illustrator 14.0.0, SVG Export Plug-In . SVG Version: 6.00 Build 43363)  -->
<!DOCTYPE svg PUBLIC "-//W3C//DTD SVG 1.1 Tiny//EN" "http://www.w3.org/Graphics/SVG/1.1/DTD/svg11-tiny.dtd">
<svg version="1.1" baseProfile="tiny" id="Layer_1" xmlns="http://www.w3.org/2000/svg" xmlns:xlink="http://www.w3.org/1999/xlink"
	 x="0px" y="0px" width="50px" height="50px" viewBox="0 0 50 50" xml:space="preserve">
<g>
	<path id="path5093_2_" d="M34.537,28.887c2.004-14.086-16.462,5.953-14.183-10.951c2.232-9.832,14.528-10.33,17.452-9.688
		c3.272,0.721,6.557,3.182,8.572,6.422c3.973,6.387,3.378,16.245-1.441,23.822c-1.151,1.811-4.667,8.517-15.943,10.339
		c-4.087,0.639-10.411-0.478-16.321-4.017c0,0,9.407,2.537,15.158-2.748C31.002,39.15,33.834,33.841,34.537,28.887z"/>
	<path d="M15.24,42.936c-0.905,0-1.796-0.097-2.646-0.284c-4.053-0.891-6.819-2.722-8.711-5.761
		c-4.255-6.841-3.763-16.705,1.224-24.548c1.175-1.846,3.438-4.351,5.153-5.698c3.351-2.637,10.045-5.508,15.852-5.637
		c9.271-0.199,12.778,3.425,12.922,3.574c0.149,0.158,0.182,0.398,0.079,0.595c-0.1,0.193-0.311,0.299-0.521,0.258
		C36.676,5.054,34.83,4.86,33.107,4.86c-13.184,0-16.408,10.799-16.537,14.959c-0.001,0.012-0.001,0.023-0.003,0.035
		c-0.41,4.315,0.003,7.216,1.23,8.622c0.639,0.732,1.525,1.09,2.709,1.09c1.372,0,2.95-0.478,4.342-0.902
		c1.21-0.366,2.353-0.712,3.24-0.712c0.738,0,1.278,0.243,1.608,0.727c0.592,0.87,0.46,2.429-0.431,5.062
		c-1.124,3.369-4.71,6.221-7.438,7.636C19.661,42.399,17.389,42.936,15.24,42.936z M26.856,2.013c-0.235,0-0.478,0.003-0.724,0.009
		c-5.397,0.12-12.01,2.854-15.283,5.429c-1.613,1.269-3.825,3.715-4.93,5.452C1.144,20.414,0.655,29.833,4.704,36.34
		c1.764,2.837,4.26,4.478,8.093,5.321c2.666,0.586,5.744,0.152,8.613-1.198c2.75-1.43,5.973-4.173,6.935-7.056
		c0.926-2.739,0.814-3.765,0.557-4.143c-0.088-0.129-0.268-0.299-0.812-0.299c-0.749,0-1.827,0.325-2.967,0.674
		c-1.454,0.439-3.104,0.94-4.615,0.94c-1.476,0-2.598-0.466-3.433-1.424c-1.437-1.646-1.922-4.717-1.479-9.387
		c0.114-3.492,1.603-7.266,3.987-10.102c2.232-2.657,6.39-5.821,13.525-5.821c1.113,0,2.273,0.076,3.469,0.231
		C34.842,3.144,31.73,2.013,26.856,2.013z"/>
</g>
</svg>
