<?xml version="1.0" encoding="utf-8"?>
<!-- Generator: Adobe Illustrator 14.0.0, SVG Export Plug-In . SVG Version: 6.00 Build 43363)  -->
<!DOCTYPE svg PUBLIC "-//W3C//DTD SVG 1.1 Tiny//EN" "http://www.w3.org/Graphics/SVG/1.1/DTD/svg11-tiny.dtd">
<svg version="1.1" baseProfile="tiny" id="Layer_1" xmlns="http://www.w3.org/2000/svg" xmlns:xlink="http://www.w3.org/1999/xlink"
	 x="0px" y="0px" width="50px" height="50px" viewBox="0 0 50 50" xml:space="preserve">
<g>
	<path d="M24.997,1C11.741,1.003,0.997,11.746,1,25c0,0.003,0,0.003,0,0.009C1.003,38.26,11.749,49.003,25.003,49
		s24-10.749,23.997-24c0-0.003,0-0.006,0-0.009C48.997,11.737,38.251,0.997,24.997,1z M13.82,9.165l0.025-0.012
		c0.292-0.138,0.687-0.149,1.242-0.038c2.665,0.278,4.115,0.841,4.56,1.761c0.363,0.826,0.466,1.447,0.322,1.916l-0.026,0.064
		c-0.302,0.568-0.727,0.721-1.031,0.744c-0.044,0-0.085,0.003-0.126,0.003c-0.521,0-1.031-0.167-1.526-0.492l-0.026-0.021
		c-0.728-0.568-1.45-1.072-2.147-1.506c-1.192-0.732-1.463-1.069-1.567-1.28l-0.026-0.073C13.313,9.555,13.621,9.271,13.82,9.165z
		 M9.868,32.711c-0.278,1.919-1.172,3.29-2.653,4.066l-0.04,0.018c-0.294,0.12-0.541,0.167-0.746,0.167
		c-0.557,0-0.813-0.349-0.916-0.557c-0.536-0.861-0.429-1.749,0.311-2.566c0.891-1.02,1.698-2.127,2.396-3.284l0.042-0.056
		c0.211-0.24,0.483-0.387,0.79-0.422l0.063-0.006l0.063,0.009c0.281,0.044,0.513,0.234,0.691,0.56l0.028,0.062
		C10.092,31.278,10.082,31.952,9.868,32.711z M14.583,39.142c-0.274,0-0.483-0.123-0.598-0.205l-0.041-0.032
		c-0.839-0.797-1.95-1.699-3.3-2.681c-0.347-0.252-0.541-0.507-0.587-0.773l-0.012-0.067l0.012-0.064
		c0.031-0.176,0.133-0.319,0.286-0.407c0.255-0.141,0.554-0.07,0.697-0.023c0.482,0.047,0.945,0.117,1.375,0.211
		c0.678,0.152,0.996,0.132,1.137,0.094c0.119-0.164,0.243-0.48,0.27-1.072v-5.373c-0.829,0.123-1.616,0.27-2.341,0.442l-0.044,0.009
		c-2.19,0.293-3.672,0.246-4.529-0.141l-0.021-0.009c-0.168-0.088-0.684-0.354-0.604-0.797c0.078-0.425,0.611-0.565,1.124-0.645
		c0.798-0.114,2.952-0.478,6.407-1.087c-0.035-0.797-0.198-1.594-0.485-2.379c-2.067,0.369-3.94,0.756-5.574,1.148
		c-0.768,0.188-1.642,0.012-2.597-0.533c-0.186-0.105-0.678-0.387-0.584-0.817c0.095-0.437,0.671-0.513,0.916-0.548
		c4.071-0.574,7.167-1.087,9.205-1.523c0.324-0.094,0.658-0.17,1-0.234c0.076-0.264,0.195-0.542,0.352-0.838
		c1.269-2.736,1.354-3.718,1.274-4.066c-0.003-0.003-0.006-0.006-0.006-0.009c-1.206,0.193-2.329,0.416-3.346,0.665
		c-2.443,0.539-4.132,0.574-5.174,0.111c-0.201-0.091-0.721-0.331-0.659-0.776c0.06-0.425,0.592-0.577,1.103-0.671l0.028-0.006
		c1.548-0.182,2.988-0.428,4.279-0.724c1.173-0.296,2.329-0.618,3.426-0.964c0.806-0.299,1.608-0.398,2.388-0.299
		c0.855,0.141,1.371,0.352,1.646,0.668l0.023,0.032c0.182,0.261,0.223,0.659-0.205,1.011c-0.117,0.094-0.346,0.211-1.09,0.416
		c0.498,0.311,0.835,0.615,1.025,0.92c0.199,0.205,0.223,0.407,0.211,0.545c-0.023,0.246-0.185,0.463-0.492,0.665
		c-0.39,0.384-0.68,0.712-0.855,0.981c-0.434,0.609-0.85,1.166-1.239,1.673c1.652-0.369,2.804-0.363,3.501,0.018
		c0.325,0.108,1.131,0.398,1.055,1.037l-0.012,0.105l-0.07,0.085c-0.34,0.437-0.727,0.524-1.008,0.513
		c-2.9,0.425-4.579,0.688-5.533,0.853c0.289,0.173,0.491,0.331,0.617,0.48l0.026,0.029c0.114,0.164,0.208,0.428,0.062,1.597
		c0.976-0.226,1.688-0.305,2.171-0.237l0.026,0.003c0.832,0.161,1.345,0.384,1.614,0.697l0.026,0.032
		c0.179,0.255,0.223,0.653-0.196,0.999c-0.185,0.17-0.606,0.372-2.259,0.691l-0.023,0.003c-0.527,0.076-1.043,0.176-1.537,0.296
		c-0.031,1.022,0.031,3.085,0.183,6.149c0.123,1.699-0.388,3.167-1.519,4.359C15.162,39.03,14.844,39.142,14.583,39.142z
		 M9.713,18.616c0.073-0.592,0.429-0.686,0.608-0.694c0.308-0.026,0.656,0.053,1.065,0.243c1.597,0.639,2.457,1.465,2.558,2.449
		l0.004,0.038l-0.004,0.038c-0.037,0.387-0.188,0.724-0.45,0.996l-0.042,0.044l-0.053,0.032c-0.249,0.141-0.508,0.211-0.768,0.211
		c-0.151,0-0.302-0.023-0.45-0.07l-0.057-0.018l-0.05-0.035c-0.671-0.445-1.327-1.184-1.95-2.191
		C9.803,19.278,9.669,18.936,9.713,18.616z M21.83,31.571v0.053c-0.003,0.357-0.073,0.686-0.211,0.967l-0.023,0.047l-0.032,0.038
		c-0.234,0.272-0.557,0.413-0.923,0.413c-0.103,0-0.208-0.009-0.313-0.029l-0.044-0.012l-0.041-0.018
		c-0.718-0.302-1.474-0.891-2.317-1.793c-0.381-0.34-0.586-0.653-0.627-0.955c-0.073-0.516,0.193-0.7,0.366-0.765
		c0.123-0.062,0.255-0.07,0.354-0.07c1.084,0,2.062,0.281,2.9,0.841c0.457,0.311,0.759,0.727,0.896,1.236L21.83,31.571z
		 M43.152,39.3l-0.015,0.012c-0.949,0.551-1.939,0.955-2.947,1.195l-0.053,0.012h-0.053c-0.006,0-0.012,0-0.015,0l-0.009,0.006
		l-0.111,0.023c-1.494,0.275-2.862,0.41-4.107,0.41c-2.314,0-4.189-0.475-5.602-1.418l-0.026-0.018
		c-1.266-0.979-1.708-3.946-1.354-9.076c0.079-0.715-0.041-1.459-0.357-2.232c-0.026-0.059-0.047-0.117-0.067-0.17
		c-1.09,0.088-1.954,0.196-2.578,0.328c0.097,0.047,0.193,0.105,0.284,0.17c0.419,0.24,0.82,0.645,1.192,1.195
		c0.401,0.562,0.185,0.987,0.018,1.189l-0.035,0.038c-0.984,0.935-1.137,1.236-1.16,1.304v0.117l-0.088,0.105
		c-3.498,4.301-6.275,6.574-8.49,6.943l-0.076,0.006c-0.439,0-0.639-0.281-0.639-0.539v-0.088l0.04-0.082
		c0.145-0.293,0.376-0.533,0.687-0.709c6.021-5.15,6.926-7.488,6.621-8.543c-0.053-0.129-0.088-0.229-0.114-0.305
		c-0.085-0.035-0.144-0.067-0.19-0.105l-0.035-0.035c-1.008-1.049-1.081-3.469-1.081-3.469c0.331-1.169,0.501-3.791,0.501-5.906
		c-0.029-2.596-0.334-5.314-0.908-6.82c-0.278-0.516-0.07-0.867,0.22-1.025l0.073-0.032c0.378-0.123,0.744-0.123,1.09-0.003
		c0.527,0.152,0.926,0.322,1.225,0.516c1.854-0.281,3.949-0.8,6.229-1.547c0.636-0.293,1.395-0.311,2.256-0.053
		c2.232,0.551,2.769,0.896,2.988,1.134l0.021,0.023c0.214,0.27,0.48,0.841-0.126,1.623c-0.428,0.577-0.876,3.486-0.562,10.975
		c0,1.86-0.135,3.94-0.428,4.497l-0.012,0.018c-0.475,0.797-0.885,1.184-1.318,1.242c-0.536,0.123-1.075-0.428-1.532-0.984
		l-0.012-0.018c-0.182-0.24-0.369-0.486-0.565-0.732c0.029,0.176,0.012,0.36-0.041,0.557c-0.803,4.128-0.847,6.844-0.129,8.08
		l0.012,0.018c0.053,0.1,0.234,0.305,0.879,0.527c1.33,0.413,2.924,0.445,4.717,0.094c0.838-0.229,1.216-0.428,1.389-0.56
		c0.51-0.554,1.195-1.761,2.042-3.58c0.1-0.302,0.255-0.653,0.571-0.771c0.17-0.062,0.352-0.047,0.516,0.041l0.038,0.023
		c0.302,0.211,0.46,0.562,0.472,1.037c0.469,1.72,0.87,2.868,1.189,3.41C44.034,38.143,43.882,38.834,43.152,39.3z"/>
	<path d="M31.832,25.785c0.152,0.094,0.293,0.179,0.422,0.249c0.053-0.041,0.076-0.129,0.038-0.334l-0.006-0.047l0.003-0.05
		c0.17-2.183,0.196-6.896,0.085-10.857c-0.035-1.257-0.275-1.515-0.322-1.553c-0.132-0.108-0.595-0.319-2.065,0.015
		c-1.597,0.363-2.982,0.65-4.128,0.855c-0.018,0.305-0.041,1.143-0.044,2.648c0.29-0.059,0.595-0.111,0.911-0.155
		c2.689-0.53,3.281-0.583,3.501-0.56l0.044,0.006c0.741,0.141,1.143,0.316,1.333,0.574c0.243,0.308,0.185,0.68-0.152,0.955
		l-0.12,0.097h-0.117c-3.369,0.63-4.764,0.847-5.399,0.911v2.906c0.366-0.059,0.729-0.111,1.081-0.161
		c2.672-0.565,3.296-0.583,3.568-0.516c0.727,0.167,1.125,0.352,1.312,0.606c0.141,0.182,0.152,0.352,0.135,0.469
		c-0.023,0.161-0.114,0.308-0.27,0.439v0.105l-0.343,0.064c-3.413,0.65-4.808,0.791-5.458,0.791c-0.009,0-0.018,0-0.023,0
		c0.006,0.349,0.018,1.661,0.038,2.019l0.003,0.021c0,0.475-0.009,0.896-0.021,1.254c1.169-0.217,2.481-0.486,3.905-0.806
		c0.841-0.185,1.5-0.179,2.016,0.018L31.832,25.785z"/>
</g>
</svg>
